<?xml version="1.0" standalone="no"?>
<!DOCTYPE svg PUBLIC "-//W3C//DTD SVG 20010904//EN"
 "http://www.w3.org/TR/2001/REC-SVG-20010904/DTD/svg10.dtd">
<svg version="1.0" xmlns="http://www.w3.org/2000/svg"
 width="228.000000pt" height="228.000000pt" viewBox="0 0 228.000000 228.000000"
 preserveAspectRatio="xMidYMid meet">
<metadata>
Created by potrace 1.11, written by Peter Selinger 2001-2013
</metadata>
<g transform="translate(0.000000,228.000000) scale(0.100000,-0.100000)"
fill="#000000" stroke="none">
<path d="M1030 2180 c-25 -4 5 -5 65 -2 61 2 112 6 114 8 7 7 -131 1 -179 -6z"/>
<path d="M1275 2169 c66 -9 214 -53 258 -76 27 -13 28 -16 13 -32 -9 -10 -13
-20 -10 -24 4 -3 14 3 23 14 16 20 18 20 52 4 29 -14 35 -22 31 -40 -5 -28
-37 -38 -66 -22 -19 10 -19 12 -3 15 9 2 17 7 17 12 0 11 -70 2 -86 -11 -7 -5
-24 -7 -39 -3 -19 5 -25 11 -22 25 3 10 0 20 -7 23 -6 2 -3 5 7 5 9 1 17 6 17
11 0 7 -6 7 -19 0 -13 -6 -17 -17 -14 -30 6 -23 4 -24 -32 -10 -18 7 -25 15
-21 25 3 8 1 15 -4 15 -6 0 -10 -7 -10 -16 0 -11 -5 -14 -16 -10 -9 3 -22 6
-30 6 -8 0 -15 10 -15 23 -1 16 -3 17 -6 5 -4 -15 -16 -16 -106 -11 -56 3
-103 10 -105 14 -2 5 -10 2 -19 -6 -20 -21 -53 -19 -54 3 0 13 -2 14 -6 2 -3
-8 -11 -18 -17 -22 -16 -11 -56 -10 -56 2 0 6 -4 10 -10 10 -5 0 -7 -6 -4 -14
3 -9 -6 -17 -25 -24 -17 -6 -31 -9 -31 -6 0 3 -10 -2 -22 -10 -12 -9 -30 -16
-40 -16 -10 0 -18 -4 -18 -8 0 -5 -12 -14 -26 -21 -20 -9 -30 -9 -40 0 -11 9
-13 9 -9 -2 4 -10 -11 -26 -40 -47 -46 -33 -65 -39 -65 -23 0 5 -10 7 -22 3
-14 -3 -19 -1 -14 6 5 8 1 10 -9 5 -10 -3 -21 0 -27 8 -7 11 -11 11 -15 1 -2
-6 -9 -9 -15 -6 -5 4 0 17 14 31 l23 26 -25 -16 c-24 -16 -26 -15 -50 16 -43
55 -81 87 -104 86 -17 0 -15 -3 11 -15 32 -14 83 -77 83 -102 0 -8 -21 9 -46
37 -72 80 -106 65 -64 -28 11 -24 20 -45 20 -48 0 -3 -21 -3 -47 1 l-48 6 42
-18 c60 -25 61 -31 3 -19 -31 6 -50 15 -50 23 0 19 -26 18 -34 -1 -10 -26 5
-45 46 -56 22 -5 51 -15 64 -21 23 -11 23 -12 8 -30 -10 -10 -23 -18 -31 -18
-9 0 -13 -7 -11 -17 3 -10 -11 -49 -29 -87 -19 -37 -32 -71 -29 -74 3 -3 6 -1
6 4 0 5 16 36 36 69 35 59 35 60 30 23 -2 -21 -1 -40 4 -43 9 -6 -1 -49 -19
-84 -7 -12 -16 -19 -20 -17 -11 7 -46 -32 -38 -40 4 -4 9 1 13 10 9 24 23 19
17 -6 -5 -23 -5 -23 11 -3 15 19 15 19 7 -10 -5 -16 -12 -43 -16 -60 -6 -27
-8 -28 -20 -12 -7 10 -19 15 -29 11 -18 -7 -22 -24 -6 -24 6 0 10 6 10 12 0 7
7 2 16 -10 9 -13 13 -26 10 -29 -3 -4 -6 -1 -6 7 0 10 -3 10 -15 0 -12 -10
-15 -10 -15 0 0 7 -7 10 -16 6 -14 -5 -15 -1 -9 31 4 21 15 62 26 92 24 71 17
79 -9 9 -50 -135 -66 -297 -50 -505 6 -84 33 -183 48 -183 5 0 6 -7 3 -17 -5
-12 -3 -14 7 -8 10 6 12 4 7 -9 -4 -9 -3 -15 1 -12 10 6 44 -59 47 -91 4 -30
44 -95 55 -88 5 3 12 0 16 -6 4 -8 3 -9 -4 -5 -22 13 -12 -7 29 -62 42 -55
366 -382 379 -382 4 0 20 10 35 21 25 21 33 21 118 13 51 -5 192 -9 314 -9
164 0 225 -3 234 -12 18 -18 54 -16 69 2 7 9 72 60 144 114 212 159 306 267
396 456 74 153 95 249 94 430 0 107 -5 170 -17 220 -19 78 -58 188 -64 182 -2
-3 6 -29 17 -59 32 -86 50 -201 48 -306 l-1 -97 -7 120 c-8 125 -32 231 -77
340 -22 53 -44 94 -108 201 l-17 29 26 -30 c14 -16 26 -26 26 -21 0 5 -7 17
-15 26 -12 13 -12 23 -3 52 15 49 4 85 -33 104 -17 8 -28 11 -25 5 5 -7 -9
-11 -41 -11 -26 0 -59 -3 -73 -7 -22 -6 -24 -5 -11 10 9 11 28 17 55 17 46 0
52 11 41 77 -9 53 -34 57 -95 17 l-52 -34 7 27 c6 24 5 25 -12 12 -10 -8 -20
-16 -23 -19 -25 -25 -38 -30 -43 -16 -4 11 -1 13 11 10 29 -9 -17 25 -73 53
-110 56 -275 105 -348 102 -19 -1 -8 -5 28 -10z m295 -191 c0 -11 -18 -10 -41
3 -11 5 -17 14 -14 19 6 9 55 -11 55 -22z m-1178 -80 c-9 -9 -14 -5 -22 16
-15 40 -13 43 12 18 17 -17 19 -25 10 -34z m1239 38 c-10 -11 -8 -17 6 -26 17
-11 17 -11 0 -6 -12 4 -21 -2 -29 -19 -6 -14 -15 -25 -20 -25 -5 0 -6 -10 -3
-22 3 -13 1 -30 -5 -38 -8 -13 -11 -13 -24 0 -13 13 -13 20 -1 54 15 42 10 65
-8 47 -6 -6 -15 -11 -21 -11 -18 0 29 29 49 30 l20 1 -20 9 c-17 6 -14 8 15
12 19 3 39 6 44 6 5 1 3 -4 -3 -12z m-171 -26 c0 -24 -84 -62 -215 -96 -124
-33 -157 -38 -293 -42 -126 -3 -165 -1 -223 14 l-71 18 34 12 33 11 -32 7
c-34 8 -54 36 -25 36 9 0 64 -9 120 -20 91 -18 117 -19 211 -10 59 5 168 23
242 39 118 26 159 34 207 40 6 0 12 -3 12 -9z m-840 -40 c0 -13 -11 -13 -30 0
-12 8 -11 10 8 10 12 0 22 -4 22 -10z m1283 1 c12 -1 17 -9 17 -28 l0 -27 -31
30 -32 29 18 -27 c16 -25 16 -28 1 -28 -9 0 -16 5 -16 12 0 6 -7 19 -16 29
-15 17 -14 18 12 15 16 -2 37 -4 47 -5z m-385 -52 c-1 -17 4 -34 9 -37 21 -13
19 -44 -4 -53 -19 -7 -23 -5 -23 10 0 31 -72 32 -148 4 -34 -13 -69 -23 -77
-23 -24 0 -299 -173 -325 -205 -7 -8 -21 -15 -32 -15 -10 0 -16 -4 -13 -10 4
-6 -5 -10 -19 -10 -35 0 -33 13 11 61 28 31 79 62 205 125 92 46 172 84 178
84 6 0 41 14 78 32 87 41 145 67 154 67 4 1 6 -13 6 -30z m212 6 c0 -8 -10
-19 -21 -26 -22 -11 -21 -3 4 29 12 16 17 15 17 -3z m-1090 -20 c0 -12 -32
-67 -36 -63 -7 7 17 68 27 68 5 0 9 -2 9 -5z m1240 -15 c0 -5 -2 -10 -4 -10
-3 0 -8 5 -11 10 -3 6 -1 10 4 10 6 0 11 -4 11 -10z m-1172 -28 c50 -43 43
-63 -15 -41 -23 8 -26 8 -15 -2 21 -22 13 -33 -9 -13 -36 33 -44 56 -23 71 24
17 24 17 62 -15z m903 8 c18 -10 27 -40 12 -40 -10 1 -47 50 -38 50 4 0 15 -5
26 -10z m237 -45 c-3 -3 -9 2 -12 12 -6 14 -5 15 5 6 7 -7 10 -15 7 -18z
m-1448 -14 c7 11 10 11 14 -1 16 -55 17 -55 27 -40 8 11 9 1 4 -35 -22 -177
-26 -233 -27 -342 0 -104 -3 -120 -14 -108 -8 7 -14 24 -14 36 0 26 -21 91
-32 100 -5 3 -4 81 2 175 10 171 21 256 28 220 3 -15 6 -16 12 -5z m1188 1 c2
-7 -3 -12 -12 -12 -9 0 -16 7 -16 16 0 17 22 14 28 -4z m407 -42 c28 -54 33
-87 10 -56 -18 23 -29 17 -18 -10 5 -10 16 -19 26 -19 12 0 24 -13 33 -33 10
-25 10 -32 1 -31 -26 3 -37 -2 -37 -17 0 -14 3 -14 16 -4 19 16 36 1 51 -46
12 -34 0 -60 -31 -66 -14 -2 -22 7 -32 32 -7 19 -13 29 -13 23 -1 -7 -5 -13
-10 -13 -13 0 -32 58 -21 65 5 3 11 -3 14 -12 7 -23 66 -27 66 -5 0 8 -6 12
-15 8 -20 -7 -45 3 -45 19 0 8 -7 11 -18 8 -13 -3 -22 4 -30 23 -15 31 -9 42
13 24 13 -11 14 -10 9 4 -3 9 -1 16 5 16 19 0 12 22 -9 27 -12 3 -27 18 -36
34 -13 26 -13 29 1 29 8 0 15 5 15 10 0 6 -4 10 -10 10 -5 0 -2 8 8 18 22 24
27 21 57 -38z m-1434 36 c-13 -16 -51 -28 -51 -17 0 8 38 29 54 30 5 1 3 -5
-3 -13z m1158 -32 c2 -2 -9 -67 -23 -146 -14 -79 -26 -161 -26 -184 0 -90 -12
-163 -26 -157 -10 4 -14 -4 -14 -26 0 -39 -25 -42 -35 -3 l-8 27 -14 -30 c-31
-68 7 399 43 517 4 15 13 16 52 11 26 -3 49 -7 51 -9z m-1095 -72 c-8 -2 -31
8 -50 23 -28 22 -38 24 -50 14 -8 -6 -17 -9 -21 -5 -8 7 -7 8 37 29 l35 16 32
-37 c23 -27 28 -38 17 -40z m1304 18 c7 -12 10 -26 6 -32 -6 -10 -33 25 -34
45 0 14 15 7 28 -13z m-586 -67 c-16 -21 -84 -91 -150 -155 -111 -107 -142
-144 -142 -164 0 -4 12 4 28 18 32 31 59 43 126 52 54 8 96 25 96 38 0 17 18
7 23 -13 8 -31 -58 -115 -108 -138 -22 -11 -56 -26 -76 -36 -48 -21 -75 -52
-84 -93 -7 -33 -7 -33 52 25 62 62 75 72 138 103 28 14 59 20 112 20 50 0 74
4 80 14 10 18 50 30 57 17 4 -5 -7 -19 -24 -31 -16 -12 -33 -32 -36 -46 -3
-13 -9 -24 -13 -24 -3 0 -22 -15 -42 -33 -20 -17 -52 -41 -73 -51 -46 -24 -66
-46 -41 -46 20 0 102 -57 109 -77 8 -19 -2 -21 -133 -26 -109 -5 -115 -4 -137
18 l-23 23 -10 -31 c-14 -38 -14 -78 -1 -111 l10 -26 -61 0 c-56 0 -59 1 -49
19 11 22 14 100 4 126 -6 14 -9 14 -29 -5 -26 -24 -95 -31 -176 -17 -27 4 -58
3 -73 -3 -32 -12 -35 6 -6 42 18 23 37 34 95 53 17 5 14 9 -20 24 -22 10 -61
42 -86 72 -30 35 -67 65 -103 82 -31 15 -56 33 -56 39 0 17 184 5 213 -15 13
-8 42 -19 63 -22 53 -10 92 -35 149 -96 l48 -51 -7 33 c-9 47 -28 63 -117 100
-95 39 -159 99 -159 148 0 36 17 49 33 27 7 -9 39 -21 72 -27 33 -6 81 -22
106 -35 26 -13 49 -24 52 -24 10 0 -14 58 -29 71 -20 16 -18 42 11 120 32 89
45 109 72 109 18 0 25 -9 34 -42 6 -24 17 -61 25 -83 7 -22 15 -49 17 -60 2
-16 29 6 131 109 121 123 173 160 108 79z m-1006 -29 c-4 -9 -9 -15 -11 -12
-3 3 -3 13 1 22 4 9 9 15 11 12 3 -3 3 -13 -1 -22z m-17 -56 c-5 -18 -9 -34
-9 -36 0 -2 -4 -1 -9 3 -6 3 -6 17 1 35 14 41 29 38 17 -2z m-19 -60 c0 -17
-18 -44 -24 -37 -8 7 5 49 15 49 5 0 9 -6 9 -12z m1713 -10 c4 -12 4 -24 1
-27 -6 -7 -24 20 -24 37 0 21 17 13 23 -10z m52 -58 c-3 -5 -12 -10 -18 -10
-7 0 -6 4 3 10 19 12 23 12 15 0z m-45 -25 c0 -14 -2 -25 -4 -25 -2 0 -6 11
-8 25 -3 14 -1 25 3 25 5 0 9 -11 9 -25z m-1750 -142 c0 -22 -2 -25 -10 -13
-13 20 -13 40 0 40 6 0 10 -12 10 -27z m1747 -20 c-3 -10 -5 -4 -5 12 0 17 2
24 5 18 2 -7 2 -21 0 -30z m-1598 -85 c-1 -87 -2 -90 -10 -43 -9 46 -4 135 7
135 2 0 3 -42 3 -92z m-139 36 c0 -28 -15 -25 -23 6 -3 13 0 20 9 20 8 0 14
-10 14 -26z m1727 -26 c-3 -7 -5 -2 -5 12 0 14 2 19 5 13 2 -7 2 -19 0 -25z
m-1767 7 c11 -13 10 -14 -4 -9 -9 3 -16 10 -16 15 0 13 6 11 20 -6z m1887 -32
c-3 -10 -5 -4 -5 12 0 17 2 24 5 18 2 -7 2 -21 0 -30z m-1882 -23 c-3 -11 -2
-20 3 -20 5 0 12 -11 14 -24 4 -18 1 -22 -12 -19 -18 5 -35 -22 -24 -38 3 -5
2 -9 -1 -9 -3 0 -13 16 -21 36 -16 38 -12 51 26 81 21 17 22 16 15 -7z m1765
3 c0 -24 -16 -48 -23 -36 -8 13 3 53 14 53 5 0 9 -8 9 -17z m107 -45 c-3 -8
-6 -5 -6 6 -1 11 2 17 5 13 3 -3 4 -12 1 -19z m-52 -85 c-33 -97 -101 -237
-128 -260 -19 -18 -20 -17 -8 5 7 12 9 27 6 32 -11 18 6 50 33 65 27 14 27 15
5 21 -13 3 -23 10 -23 14 0 10 20 8 38 -3 7 -5 12 -3 12 7 0 8 -8 20 -17 25
-16 9 -16 10 -2 11 10 0 20 11 23 26 5 18 12 24 22 20 8 -3 12 -2 9 3 -3 5 -1
12 5 16 14 9 13 36 -2 33 -6 -2 -13 6 -15 17 l-3 20 10 -20 c9 -19 9 -19 16 3
3 12 10 22 14 22 5 0 12 10 16 23 4 12 9 17 11 10 2 -6 -8 -47 -22 -90z
m-1768 55 c-3 -8 -6 -5 -6 6 -1 11 2 17 5 13 3 -3 4 -12 1 -19z m1696 15 c6
-12 -19 -67 -26 -57 -7 12 3 64 14 64 4 0 10 -3 12 -7z m-1723 -109 c0 -13 -5
-24 -12 -24 -6 0 -8 3 -5 7 4 3 -1 12 -11 19 -15 12 -15 15 -2 23 19 13 30 5
30 -25z m1694 21 c-4 -8 -10 -15 -15 -15 -4 0 -6 7 -3 15 4 8 10 15 15 15 4 0
6 -7 3 -15z m-1669 -96 c3 6 10 11 14 11 14 0 8 -30 -9 -45 -15 -13 -18 -11
-34 23 -18 37 -18 37 2 19 13 -12 22 -15 27 -8z m1715 -76 c-16 -32 -41 -71
-55 -88 -13 -16 -1 9 27 58 58 99 74 116 28 30z m-1701 -49 c12 -19 16 -32 11
-29 -11 7 -43 65 -36 65 2 0 13 -16 25 -36z m35 -10 c5 -14 4 -15 -9 -4 -17
14 -19 20 -6 20 5 0 12 -7 15 -16z m981 -434 c-11 -5 -29 -8 -40 -8 -16 0 -15
2 5 8 34 11 60 11 35 0z m-127 -17 c-27 -2 -69 -2 -95 0 -27 2 -5 3 47 3 52 0
74 -1 48 -3z"/>
<path d="M1960 1674 c0 -8 5 -12 10 -9 6 3 10 10 10 16 0 5 -4 9 -10 9 -5 0
-10 -7 -10 -16z"/>
<path d="M948 2163 c6 -2 18 -2 25 0 6 3 1 5 -13 5 -14 0 -19 -2 -12 -5z"/>
<path d="M908 2153 c7 -3 16 -2 19 1 4 3 -2 6 -13 5 -11 0 -14 -3 -6 -6z"/>
<path d="M1116 2145 c-9 -26 -7 -32 5 -12 6 10 9 21 6 23 -2 3 -7 -2 -11 -11z"/>
<path d="M1227 2141 c2 -8 -4 -22 -13 -32 -16 -18 -16 -19 -1 -19 10 0 17 7
17 15 0 8 7 15 15 15 8 0 15 5 15 10 0 6 -6 10 -14 10 -8 0 -16 3 -19 8 -2 4
-2 1 0 -7z"/>
<path d="M835 2135 c-39 -17 -21 -18 25 0 19 7 28 14 20 14 -8 0 -28 -6 -45
-14z"/>
<path d="M1190 2130 c0 -5 5 -10 11 -10 5 0 7 5 4 10 -3 6 -8 10 -11 10 -2 0
-4 -4 -4 -10z"/>
<path d="M1310 2130 c0 -5 5 -10 11 -10 5 0 7 5 4 10 -3 6 -8 10 -11 10 -2 0
-4 -4 -4 -10z"/>
<path d="M974 2115 c-10 -8 -14 -15 -7 -15 6 0 15 5 18 10 5 8 12 7 23 -2 15
-12 16 -11 3 5 -16 20 -13 20 -37 2z"/>
<path d="M1355 2100 c-19 -8 -19 -9 3 -9 12 -1 22 4 22 9 0 6 -1 10 -2 9 -2 0
-12 -4 -23 -9z"/>
<path d="M875 2060 c-3 -5 -1 -10 4 -10 6 0 11 5 11 10 0 6 -2 10 -4 10 -3 0
-8 -4 -11 -10z"/>
<path d="M290 1631 c0 -6 5 -13 10 -16 6 -3 10 1 10 9 0 9 -4 16 -10 16 -5 0
-10 -4 -10 -9z"/>
<path d="M230 776 c0 -11 30 -66 36 -66 2 0 -3 15 -12 33 -19 36 -24 44 -24
33z"/>
</g>
</svg>
